<?xml version="1.0" encoding="utf-8"?>
<!-- Generator: Adobe Illustrator 15.1.0, SVG Export Plug-In . SVG Version: 6.00 Build 0)  -->
<!DOCTYPE svg PUBLIC "-//W3C//DTD SVG 1.1//EN" "http://www.w3.org/Graphics/SVG/1.1/DTD/svg11.dtd">
<svg version="1.1" id="Layer_1" xmlns="http://www.w3.org/2000/svg" xmlns:xlink="http://www.w3.org/1999/xlink" x="0px" y="0px"
	 width="178px" height="49px" viewBox="0.258 -0.017 178 49" enable-background="new 0.258 -0.017 178 49" xml:space="preserve">
<g>
	<polygon fill="#12679B" points="23.022,25.06 1.021,16.546 1.021,11.375 25.675,2.961 25.055,8.125 8.4,13.96 23.648,19.854 	"/>
	<path fill="#12679B" d="M39.978,15.188h-6.214V11.53h0.67l0.67-5.602c0.099-0.802-0.188-1.202-0.857-1.202
		c-0.182,0-0.342,0.028-0.481,0.085v-3.85c0.29-0.017,0.588-0.022,0.896-0.022c4.102,0,6.256,1.264,6.464,3.791v0.853
		c-0.007,0.1-0.021,0.201-0.03,0.304L39.978,15.188z M33.763,17.092L33.763,17.092l0.135-1.127h5.987l-0.595,4.959
		c-0.333,2.763-2.178,4.366-5.527,4.812V17.092z M33.763,15.188L33.763,15.188h-1.795l-0.68,5.656
		c-0.1,0.82,0.192,1.232,0.873,1.232c0.669,0,1.054-0.413,1.151-1.232l0.449-3.754v8.644c-0.643,0.087-1.341,0.128-2.095,0.128
		c-4.066,0-6.194-1.315-6.385-3.947V21.11c0.01-0.13,0.021-0.265,0.036-0.401l1.754-14.617c0.388-3.21,2.614-4.92,6.688-5.132v3.85
		c-0.382,0.16-0.611,0.532-0.681,1.118l-0.676,5.602h1.358V15.188L33.763,15.188z"/>
	<path fill="#12679B" d="M48.568,1.699c0.912-0.508,1.913-0.761,3.004-0.761c1.36,0,2.578,0.343,3.652,1.028
		c1.072,0.688,1.534,1.681,1.38,2.967l-2.106,17.546c-0.123,1.021-0.643,1.841-1.559,2.459c-0.913,0.618-1.972,0.924-3.179,0.924
		c-0.428,0-0.827-0.02-1.193-0.06v-4.346c0.063-0.141,0.104-0.307,0.126-0.498L50.51,5.841c0.088-0.741-0.207-1.114-0.89-1.114
		c-0.522,0-0.873,0.21-1.054,0.628L48.568,1.699L48.568,1.699z M46.149,24.958L46.149,24.958l-0.687,5.729h-5.985l3.546-29.578
		h4.533l0.388,0.985c0.202-0.146,0.409-0.277,0.624-0.396v3.654c-0.062,0.139-0.103,0.301-0.127,0.486L46.624,21
		c-0.085,0.715,0.221,1.074,0.917,1.074c0.506,0,0.848-0.206,1.026-0.618v4.346C47.505,25.689,46.698,25.409,46.149,24.958"/>
	<path fill="#12679B" d="M69.564,25.519h-5.289l0.112-0.946c-0.201,0.317-0.51,0.574-0.921,0.774V22
		c0.376-0.145,0.597-0.491,0.663-1.04l0.754-6.291c-0.583,0.139-1.056,0.324-1.417,0.56v-4.127c1.31-0.646,1.986-1.167,2.035-1.564
		l0.434-3.612c0.095-0.798-0.201-1.199-0.892-1.199c-0.784,0-1.298,0.975-1.529,2.923c-0.017,0.134-0.033,0.294-0.048,0.477V1.101
		c0.72-0.109,1.508-0.162,2.372-0.162c3.896,0,5.932,1.315,6.102,3.948V5.63c-0.009,0.149-0.021,0.302-0.041,0.458L69.564,25.519z
		 M63.466,25.348L63.466,25.348c-0.713,0.346-1.741,0.516-3.081,0.516c-2.857,0-4.345-0.979-4.465-2.936v-0.537
		c0.005-0.116,0.016-0.233,0.032-0.354l0.588-4.904c0.128-1.092,0.64-2.043,1.528-2.857c0.89-0.817,2.604-1.834,5.146-3.05
		c0.085-0.041,0.169-0.082,0.25-0.122v4.127c-0.52,0.333-0.808,0.766-0.872,1.292l-0.532,4.439
		c-0.089,0.743,0.227,1.115,0.942,1.115c0.174,0,0.327-0.022,0.462-0.076L63.466,25.348L63.466,25.348z M63.466,8.125L63.466,8.125
		c-0.026,0.295-0.051,0.654-0.079,1.077c-0.023,0.688-0.057,1.205-0.101,1.557H57.52l0.584-4.88c0.324-2.696,2.109-4.29,5.362-4.778
		V8.125z"/>
	<path fill="#12679B" d="M93.15,25.519h-5.983l2.342-19.507c0.089-0.741-0.207-1.113-0.889-1.113c-0.696,0-1.091,0.356-1.176,1.072
		l-2.343,19.548h-5.987L81.464,5.93c0.089-0.745-0.207-1.117-0.886-1.117c-0.698,0-1.087,0.359-1.177,1.075L77.048,25.52h-5.986
		l2.932-24.41h5.985l-0.104,0.858c0.909-0.688,2.188-1.029,3.845-1.029c1.386,0,2.58,0.555,3.583,1.663
		c1.183-1.108,2.686-1.663,4.51-1.663c1.038,0,1.974,0.313,2.809,0.934c0.839,0.626,1.188,1.492,1.058,2.599L93.15,25.519z"/>
	<polygon fill="#12679B" points="118.958,16.546 94.981,25.06 95.604,19.852 112.217,13.956 97.011,8.127 97.634,2.961 
		118.958,11.376 	"/>
	<path fill="#6EC3F6" d="M131.673,24.948"/>
	<path fill="#6EC3F6" d="M131.673,1.253"/>
	<path fill="#A7ABAC" d="M156.401,8.769c0,1.79-0.465,3.113-2.004,5.047l-4.044,5.083c-0.607,0.788-0.857,1.289-0.857,2.076v0.178
		h6.905v4.475h-11.848v-4.794c0-1.861,0.465-3.113,2.004-5.047l4.045-5.083c0.61-0.788,0.859-1.289,0.859-2.077V5.548
		c0-0.608-0.286-0.896-0.896-0.896h-0.322c-0.607,0-0.896,0.286-0.896,0.896V9.7h-4.723V5.01c0-3.113,1.539-4.653,4.651-4.653h2.471
		c3.113,0,4.651,1.54,4.651,4.653L156.401,8.769"/>
	<path fill="#A7ABAC" d="M165.563,25.844h-3.079c-3.111,0-4.65-1.54-4.65-4.654V5.011c0-3.114,1.539-4.654,4.65-4.654h3.079
		c3.114,0,4.654,1.54,4.654,4.654v16.178C170.217,24.303,168.677,25.844,165.563,25.844 M164.347,4.653h-0.645
		c-0.608,0-0.896,0.286-0.896,0.895v15.105c0,0.609,0.287,0.895,0.896,0.895h0.645c0.608,0,0.896-0.285,0.896-0.895V5.547
		C165.241,4.938,164.955,4.653,164.347,4.653"/>
</g>
<rect x="131.254" fill="#A7ABAC" width="1" height="25"/>
<g>
	<path fill="#666666" d="M5.333,47.107H1.021v-6.543h4.313v0.772h-3.44v1.793h3.441v0.772H1.892v2.431h3.441V47.107z"/>
	<path fill="#666666" d="M11.775,47.107h-1.042L9.34,45.222l-1.402,1.885H6.976l1.916-2.448l-1.896-2.461h1.042l1.384,1.854
		l1.389-1.854h0.967l-1.929,2.417L11.775,47.107z"/>
	<path fill="#666666" d="M16.394,46.799c-0.273,0.134-0.537,0.234-0.784,0.31c-0.248,0.073-0.511,0.11-0.789,0.11
		c-0.354,0-0.68-0.053-0.976-0.156s-0.549-0.264-0.76-0.475c-0.214-0.211-0.379-0.478-0.497-0.799
		c-0.118-0.322-0.176-0.699-0.176-1.129c0-0.804,0.22-1.434,0.66-1.891s1.022-0.688,1.746-0.688c0.281,0,0.559,0.041,0.828,0.119
		c0.271,0.079,0.521,0.176,0.745,0.291v0.918H16.35c-0.252-0.197-0.512-0.348-0.78-0.453c-0.268-0.104-0.527-0.158-0.782-0.158
		c-0.471,0-0.841,0.158-1.109,0.474c-0.271,0.313-0.407,0.776-0.407,1.386c0,0.592,0.132,1.047,0.398,1.365
		c0.265,0.316,0.638,0.477,1.118,0.477c0.167,0,0.337-0.021,0.51-0.064s0.328-0.102,0.466-0.171c0.12-0.063,0.233-0.126,0.338-0.195
		c0.105-0.069,0.189-0.128,0.25-0.178h0.044L16.394,46.799L16.394,46.799z"/>
	<path fill="#666666" d="M22.124,44.739h-3.617c0,0.303,0.045,0.565,0.136,0.789c0.091,0.225,0.215,0.408,0.374,0.553
		c0.152,0.142,0.333,0.246,0.542,0.315s0.44,0.104,0.692,0.104c0.334,0,0.67-0.065,1.009-0.199c0.338-0.135,0.579-0.266,0.723-0.395
		h0.044v0.901c-0.276,0.116-0.563,0.215-0.853,0.294s-0.595,0.119-0.914,0.119c-0.814,0-1.45-0.221-1.907-0.661
		s-0.686-1.067-0.686-1.879c0-0.804,0.219-1.44,0.657-1.912c0.438-0.474,1.014-0.708,1.729-0.708c0.662,0,1.172,0.191,1.532,0.58
		c0.356,0.387,0.538,0.936,0.538,1.646L22.124,44.739L22.124,44.739z M21.32,44.106c-0.003-0.436-0.11-0.77-0.326-1.006
		c-0.217-0.237-0.542-0.355-0.982-0.355c-0.442,0-0.795,0.129-1.057,0.392c-0.264,0.261-0.411,0.584-0.446,0.971L21.32,44.106
		L21.32,44.106z"/>
	<path fill="#666666" d="M25.062,47.107h-0.826V40.27h0.826V47.107z"/>
	<path fill="#666666" d="M27.532,47.107h-0.826V40.27h0.826V47.107z"/>
	<path fill="#666666" d="M33.862,44.739h-3.615c0,0.303,0.045,0.565,0.136,0.789c0.091,0.225,0.215,0.408,0.374,0.553
		c0.152,0.142,0.333,0.246,0.542,0.315s0.438,0.104,0.69,0.104c0.336,0,0.672-0.065,1.011-0.199
		c0.338-0.135,0.579-0.266,0.723-0.395h0.044v0.901c-0.278,0.116-0.563,0.215-0.853,0.294s-0.597,0.119-0.914,0.119
		c-0.814,0-1.45-0.221-1.907-0.661s-0.688-1.067-0.688-1.879c0-0.804,0.221-1.44,0.657-1.912c0.438-0.474,1.016-0.708,1.729-0.708
		c0.662,0,1.172,0.191,1.531,0.58c0.357,0.387,0.537,0.936,0.537,1.646L33.862,44.739L33.862,44.739z M33.058,44.106
		c-0.003-0.436-0.112-0.77-0.328-1.006c-0.215-0.237-0.542-0.355-0.98-0.355c-0.442,0-0.795,0.129-1.059,0.392
		c-0.262,0.261-0.411,0.584-0.444,0.971L33.058,44.106L33.058,44.106z"/>
	<path fill="#666666" d="M39.344,47.129h-0.826v-2.795c0-0.227-0.013-0.438-0.04-0.635c-0.024-0.199-0.075-0.354-0.145-0.465
		c-0.073-0.123-0.181-0.214-0.316-0.273c-0.137-0.061-0.314-0.09-0.536-0.09c-0.226,0-0.461,0.057-0.708,0.166
		c-0.247,0.111-0.48,0.254-0.708,0.426v3.666H35.24V42.22h0.824v0.545c0.26-0.214,0.524-0.382,0.802-0.501
		c0.274-0.12,0.558-0.182,0.848-0.182c0.53,0,0.935,0.16,1.213,0.479c0.278,0.317,0.417,0.778,0.417,1.38V47.129z"/>
	<path fill="#666666" d="M44.796,46.915c-0.275,0.133-0.537,0.234-0.785,0.31c-0.248,0.073-0.51,0.108-0.789,0.108
		c-0.354,0-0.68-0.052-0.976-0.154c-0.296-0.104-0.551-0.264-0.762-0.475c-0.214-0.211-0.379-0.478-0.497-0.8
		c-0.116-0.321-0.176-0.698-0.176-1.129c0-0.803,0.222-1.435,0.662-1.89c0.44-0.457,1.023-0.688,1.747-0.688
		c0.281,0,0.557,0.04,0.829,0.119c0.271,0.079,0.519,0.176,0.745,0.29v0.918h-0.044c-0.252-0.196-0.513-0.347-0.78-0.453
		c-0.269-0.104-0.53-0.157-0.785-0.157c-0.469,0-0.839,0.157-1.108,0.474c-0.271,0.313-0.406,0.776-0.406,1.386
		c0,0.592,0.132,1.047,0.396,1.365c0.267,0.316,0.64,0.477,1.119,0.477c0.167,0,0.337-0.021,0.51-0.066
		c0.175-0.043,0.328-0.1,0.468-0.17c0.12-0.063,0.231-0.127,0.338-0.194c0.104-0.069,0.188-0.128,0.25-0.179h0.044L44.796,46.915
		L44.796,46.915z"/>
	<path fill="#666666" d="M50.608,44.739h-3.615c0,0.303,0.045,0.565,0.136,0.789c0.091,0.225,0.215,0.408,0.374,0.553
		c0.15,0.142,0.333,0.246,0.543,0.315c0.209,0.069,0.438,0.104,0.69,0.104c0.334,0,0.67-0.065,1.01-0.199
		c0.339-0.135,0.58-0.266,0.723-0.395h0.044v0.901c-0.278,0.116-0.563,0.215-0.853,0.294s-0.597,0.119-0.914,0.119
		c-0.814,0-1.45-0.221-1.907-0.661s-0.688-1.067-0.688-1.879c0-0.804,0.221-1.44,0.657-1.912c0.438-0.474,1.017-0.708,1.729-0.708
		c0.662,0,1.172,0.191,1.529,0.58c0.359,0.387,0.539,0.936,0.539,1.646L50.608,44.739L50.608,44.739z M49.804,44.106
		c-0.003-0.436-0.112-0.77-0.327-1.006c-0.216-0.237-0.543-0.355-0.98-0.355c-0.442,0-0.795,0.129-1.059,0.392
		c-0.263,0.261-0.411,0.584-0.444,0.971L49.804,44.106L49.804,44.106z"/>
	<path fill="#666666" d="M55.912,41.399H54.98v-0.857h0.934L55.912,41.399L55.912,41.399z M55.859,47.129h-0.824V42.22h0.824V47.129
		z"/>
	<path fill="#666666" d="M61.599,47.129h-0.826v-2.795c0-0.227-0.013-0.438-0.04-0.635c-0.024-0.199-0.073-0.354-0.145-0.465
		c-0.073-0.123-0.179-0.214-0.316-0.273c-0.137-0.061-0.314-0.09-0.536-0.09c-0.226,0-0.461,0.057-0.708,0.166
		c-0.247,0.111-0.48,0.254-0.708,0.426v3.666h-0.824V42.22h0.824v0.545c0.26-0.214,0.524-0.382,0.802-0.501
		c0.274-0.12,0.558-0.182,0.848-0.182c0.53,0,0.935,0.16,1.213,0.479c0.278,0.317,0.417,0.778,0.417,1.38V47.129L61.599,47.129z"/>
	<path fill="#666666" d="M72.174,45.24c0,0.255-0.059,0.507-0.178,0.757c-0.118,0.248-0.285,0.459-0.499,0.633
		c-0.234,0.188-0.508,0.334-0.82,0.438c-0.312,0.104-0.688,0.158-1.127,0.158c-0.472,0-0.896-0.044-1.272-0.132
		c-0.376-0.09-0.759-0.219-1.147-0.393v-1.09h0.062c0.331,0.275,0.713,0.488,1.147,0.637c0.434,0.149,0.841,0.226,1.222,0.226
		c0.539,0,0.958-0.103,1.259-0.304c0.303-0.201,0.451-0.473,0.451-0.81c0-0.29-0.069-0.504-0.213-0.642
		c-0.142-0.139-0.356-0.245-0.646-0.321c-0.222-0.06-0.458-0.106-0.716-0.146c-0.256-0.039-0.526-0.086-0.813-0.146
		c-0.58-0.123-1.01-0.333-1.29-0.631c-0.28-0.297-0.42-0.687-0.42-1.162c0-0.548,0.229-0.997,0.692-1.347
		c0.465-0.352,1.052-0.525,1.764-0.525c0.46,0,0.882,0.044,1.266,0.133c0.384,0.088,0.726,0.195,1.021,0.324v1.028H71.85
		c-0.249-0.212-0.577-0.388-0.98-0.525c-0.406-0.139-0.821-0.208-1.246-0.208c-0.468,0-0.84,0.098-1.123,0.29
		c-0.283,0.193-0.424,0.442-0.424,0.747c0,0.271,0.068,0.486,0.211,0.643c0.141,0.155,0.388,0.273,0.741,0.355
		c0.188,0.041,0.454,0.091,0.802,0.148c0.346,0.059,0.639,0.119,0.879,0.181c0.484,0.129,0.853,0.323,1.099,0.584
		C72.053,44.404,72.174,44.771,72.174,45.24z"/>
	<path fill="#666666" d="M77.689,44.655c0,0.801-0.205,1.432-0.613,1.895c-0.41,0.464-0.959,0.693-1.648,0.693
		c-0.694,0-1.246-0.229-1.655-0.693c-0.408-0.463-0.611-1.094-0.611-1.895c0-0.8,0.203-1.432,0.611-1.896
		c0.409-0.463,0.96-0.694,1.655-0.694c0.688,0,1.238,0.231,1.648,0.694C77.484,43.224,77.689,43.855,77.689,44.655z M76.837,44.655
		c0-0.636-0.125-1.107-0.374-1.417c-0.249-0.309-0.595-0.464-1.037-0.464c-0.448,0-0.796,0.155-1.043,0.464
		c-0.248,0.31-0.372,0.781-0.372,1.417c0,0.615,0.125,1.082,0.374,1.399s0.596,0.477,1.042,0.477c0.439,0,0.785-0.157,1.035-0.472
		S76.837,45.276,76.837,44.655z"/>
	<path fill="#666666" d="M81.922,41.069h-0.044c-0.091-0.025-0.209-0.053-0.356-0.081c-0.146-0.028-0.273-0.042-0.387-0.042
		c-0.354,0-0.612,0.079-0.771,0.235c-0.158,0.155-0.238,0.438-0.238,0.85v0.167h1.488v0.694h-1.463v4.214h-0.824v-4.214h-0.56
		v-0.694h0.56v-0.162c0-0.584,0.145-1.031,0.435-1.344s0.709-0.468,1.257-0.468c0.187,0,0.353,0.009,0.499,0.024
		c0.147,0.02,0.283,0.039,0.406,0.063L81.922,41.069L81.922,41.069z"/>
	<path fill="#666666" d="M86.011,47.063c-0.155,0.041-0.325,0.075-0.507,0.102c-0.186,0.025-0.347,0.039-0.49,0.039
		c-0.501,0-0.882-0.135-1.143-0.404c-0.263-0.269-0.393-0.7-0.393-1.295v-2.609h-0.558V42.2h0.558v-1.41h0.826v1.41h1.705v0.694
		h-1.705v2.235c0,0.26,0.006,0.459,0.02,0.604c0.012,0.146,0.053,0.28,0.121,0.406c0.064,0.116,0.153,0.202,0.268,0.257
		c0.112,0.055,0.285,0.082,0.516,0.082c0.135,0,0.275-0.021,0.422-0.061s0.252-0.071,0.316-0.099h0.044V47.063L86.011,47.063z"/>
	<path fill="#666666" d="M93.853,42.2l-1.277,4.908H91.81l-1.261-3.783l-1.252,3.783h-0.76L87.245,42.2h0.859l0.9,3.801l1.226-3.801
		h0.683L92.17,46l0.853-3.801H93.853z"/>
	<path fill="#666666" d="M99.208,47.107h-0.822v-0.522c-0.073,0.049-0.172,0.119-0.296,0.207c-0.125,0.09-0.246,0.162-0.363,0.213
		c-0.138,0.067-0.296,0.125-0.475,0.17c-0.18,0.046-0.39,0.068-0.628,0.068c-0.442,0-0.817-0.146-1.125-0.438
		c-0.31-0.293-0.461-0.667-0.461-1.121c0-0.372,0.08-0.673,0.238-0.903c0.159-0.229,0.389-0.41,0.685-0.542
		c0.299-0.132,0.658-0.221,1.077-0.268c0.419-0.048,0.869-0.082,1.349-0.105v-0.127c0-0.188-0.033-0.343-0.099-0.466
		c-0.066-0.123-0.16-0.22-0.283-0.29c-0.117-0.067-0.258-0.112-0.422-0.136s-0.335-0.035-0.516-0.035
		c-0.217,0-0.458,0.027-0.725,0.086c-0.267,0.057-0.542,0.141-0.826,0.248h-0.044v-0.839c0.161-0.044,0.396-0.093,0.699-0.146
		c0.304-0.054,0.604-0.08,0.901-0.08c0.346,0,0.646,0.028,0.901,0.086c0.256,0.059,0.479,0.154,0.666,0.293
		c0.187,0.136,0.325,0.31,0.422,0.522c0.099,0.214,0.146,0.479,0.146,0.795L99.208,47.107L99.208,47.107z M98.386,45.899v-1.367
		c-0.252,0.016-0.549,0.037-0.89,0.066c-0.343,0.027-0.611,0.07-0.813,0.127c-0.236,0.066-0.429,0.172-0.576,0.313
		c-0.146,0.144-0.22,0.338-0.22,0.586c0,0.281,0.085,0.494,0.255,0.637c0.17,0.142,0.43,0.213,0.778,0.213
		c0.29,0,0.555-0.057,0.795-0.169C97.957,46.191,98.181,46.057,98.386,45.899z"/>
	<path fill="#666666" d="M103.983,43.108h-0.044c-0.123-0.029-0.243-0.051-0.356-0.063c-0.116-0.015-0.253-0.021-0.411-0.021
		c-0.255,0-0.501,0.058-0.738,0.169c-0.237,0.112-0.466,0.258-0.686,0.438v3.484h-0.827v-4.908h0.826v0.726
		c0.328-0.265,0.615-0.45,0.866-0.562c0.25-0.108,0.508-0.166,0.769-0.166c0.144,0,0.248,0.004,0.312,0.012
		c0.064,0.008,0.161,0.021,0.29,0.041V43.108L103.983,43.108z"/>
	<path fill="#666666" d="M109.311,44.739h-3.617c0,0.303,0.045,0.565,0.138,0.789c0.091,0.225,0.215,0.408,0.374,0.553
		c0.15,0.142,0.333,0.246,0.543,0.315c0.209,0.069,0.438,0.104,0.69,0.104c0.334,0,0.67-0.065,1.008-0.199
		c0.341-0.135,0.58-0.266,0.725-0.395h0.044v0.901c-0.278,0.116-0.563,0.215-0.854,0.294s-0.595,0.119-0.914,0.119
		c-0.813,0-1.448-0.221-1.905-0.661s-0.688-1.067-0.688-1.879c0-0.804,0.221-1.44,0.657-1.912c0.438-0.474,1.015-0.708,1.729-0.708
		c0.66,0,1.172,0.191,1.529,0.58c0.359,0.387,0.539,0.936,0.539,1.646L109.311,44.739L109.311,44.739z M108.507,44.106
		c-0.003-0.436-0.112-0.77-0.327-1.006c-0.216-0.237-0.543-0.355-0.98-0.355c-0.442,0-0.797,0.129-1.059,0.392
		c-0.263,0.261-0.411,0.584-0.446,0.971L108.507,44.106L108.507,44.106z"/>
	<path fill="#666666" d="M118.479,47.107h-4.311v-6.543h4.311v0.772h-3.439v1.793h3.439v0.772h-3.439v2.431h3.439V47.107z"/>
	<path fill="#666666" d="M124.523,47.107h-0.826v-2.795c0-0.228-0.013-0.438-0.038-0.635c-0.026-0.198-0.075-0.354-0.146-0.466
		c-0.073-0.123-0.179-0.213-0.316-0.272c-0.137-0.062-0.314-0.09-0.534-0.09c-0.228,0-0.461,0.056-0.708,0.167
		c-0.247,0.109-0.482,0.253-0.708,0.426v3.665h-0.826v-4.909h0.826v0.545c0.258-0.214,0.522-0.381,0.8-0.5
		c0.274-0.121,0.558-0.181,0.848-0.181c0.53,0,0.937,0.16,1.213,0.479c0.278,0.318,0.417,0.778,0.417,1.379V47.107L124.523,47.107z"
		/>
	<path fill="#666666" d="M130.47,46.549c0,0.832-0.188,1.443-0.567,1.832c-0.378,0.392-0.959,0.584-1.743,0.584
		c-0.263,0-0.517-0.019-0.764-0.055c-0.248-0.037-0.492-0.088-0.73-0.156v-0.844h0.044c0.135,0.053,0.349,0.118,0.642,0.196
		c0.293,0.077,0.586,0.116,0.879,0.116c0.281,0,0.516-0.034,0.699-0.102c0.185-0.066,0.328-0.162,0.431-0.281
		c0.104-0.113,0.178-0.252,0.222-0.412c0.044-0.161,0.064-0.342,0.064-0.541v-0.448c-0.249,0.199-0.485,0.349-0.714,0.446
		c-0.227,0.098-0.516,0.146-0.868,0.146c-0.586,0-1.051-0.211-1.395-0.635c-0.345-0.423-0.519-1.021-0.519-1.791
		c0-0.422,0.062-0.786,0.18-1.092c0.119-0.308,0.279-0.57,0.484-0.793c0.19-0.208,0.422-0.37,0.694-0.485
		c0.271-0.115,0.543-0.174,0.813-0.174c0.284,0,0.522,0.027,0.716,0.086c0.19,0.057,0.395,0.145,0.607,0.262l0.055-0.212h0.771
		L130.47,46.549L130.47,46.549z M129.644,45.758v-2.676c-0.22-0.101-0.424-0.17-0.613-0.213c-0.188-0.043-0.377-0.063-0.563-0.063
		c-0.454,0-0.813,0.151-1.072,0.457c-0.26,0.305-0.391,0.747-0.391,1.325c0,0.553,0.097,0.97,0.29,1.252
		c0.191,0.285,0.514,0.428,0.962,0.428c0.24,0,0.479-0.046,0.723-0.139C129.22,46.038,129.442,45.915,129.644,45.758z"/>
	<path fill="#666666" d="M133.143,41.377h-0.932V40.52h0.932V41.377z M133.09,47.107h-0.826v-4.909h0.826V47.107z"/>
	<path fill="#666666" d="M139.295,47.107h-0.826v-2.795c0-0.228-0.013-0.438-0.04-0.635c-0.026-0.198-0.075-0.354-0.145-0.466
		c-0.073-0.123-0.181-0.213-0.316-0.272c-0.137-0.062-0.316-0.09-0.536-0.09c-0.226,0-0.461,0.056-0.708,0.167
		c-0.247,0.109-0.48,0.253-0.708,0.426v3.665h-0.826v-4.909h0.826v0.545c0.258-0.214,0.524-0.381,0.8-0.5
		c0.276-0.121,0.56-0.181,0.85-0.181c0.528,0,0.935,0.16,1.213,0.479c0.278,0.318,0.417,0.778,0.417,1.379V47.107L139.295,47.107z"
		/>
	<path fill="#666666" d="M145.558,44.739h-3.617c0,0.303,0.045,0.565,0.138,0.789c0.091,0.225,0.215,0.408,0.374,0.553
		c0.15,0.142,0.333,0.246,0.542,0.315s0.438,0.104,0.69,0.104c0.334,0,0.67-0.065,1.009-0.199c0.34-0.135,0.579-0.266,0.725-0.395
		h0.044v0.901c-0.278,0.116-0.563,0.215-0.854,0.294s-0.595,0.119-0.914,0.119c-0.813,0-1.448-0.221-1.905-0.661
		s-0.688-1.067-0.688-1.879c0-0.804,0.219-1.44,0.657-1.912c0.438-0.474,1.014-0.708,1.729-0.708c0.662,0,1.174,0.191,1.532,0.58
		c0.358,0.387,0.538,0.936,0.538,1.646L145.558,44.739L145.558,44.739z M144.753,44.106c-0.003-0.436-0.112-0.77-0.328-1.006
		c-0.215-0.237-0.542-0.355-0.982-0.355s-0.795,0.129-1.057,0.392c-0.262,0.261-0.411,0.584-0.446,0.971L144.753,44.106
		L144.753,44.106z"/>
	<path fill="#666666" d="M151.606,44.739h-3.617c0,0.303,0.047,0.565,0.138,0.789c0.091,0.225,0.215,0.408,0.374,0.553
		c0.15,0.142,0.333,0.246,0.542,0.315s0.438,0.104,0.69,0.104c0.334,0,0.67-0.065,1.011-0.199c0.338-0.135,0.577-0.266,0.723-0.395
		h0.044v0.901c-0.278,0.116-0.563,0.215-0.853,0.294c-0.29,0.079-0.597,0.119-0.914,0.119c-0.814,0-1.45-0.221-1.907-0.661
		s-0.688-1.067-0.688-1.879c0-0.804,0.221-1.44,0.657-1.912c0.438-0.474,1.014-0.708,1.729-0.708c0.661,0,1.172,0.191,1.53,0.58
		c0.358,0.387,0.538,0.936,0.538,1.646L151.606,44.739L151.606,44.739z M150.802,44.106c-0.003-0.436-0.112-0.77-0.328-1.006
		c-0.215-0.237-0.542-0.355-0.98-0.355c-0.442,0-0.797,0.129-1.059,0.392c-0.262,0.261-0.411,0.584-0.446,0.971L150.802,44.106
		L150.802,44.106z"/>
	<path fill="#666666" d="M156.359,43.1h-0.044c-0.123-0.029-0.243-0.053-0.356-0.063c-0.116-0.015-0.252-0.021-0.411-0.021
		c-0.255,0-0.501,0.058-0.738,0.169s-0.466,0.258-0.686,0.438v3.484h-0.826V42.2h0.826v0.725c0.328-0.264,0.616-0.449,0.866-0.562
		c0.253-0.108,0.508-0.165,0.769-0.165c0.144,0,0.248,0.004,0.312,0.012c0.064,0.006,0.161,0.021,0.29,0.041L156.359,43.1
		L156.359,43.1z"/>
	<path fill="#666666" d="M158.269,41.377h-0.932V40.52h0.932V41.377z M158.216,47.107h-0.826v-4.909h0.826V47.107z"/>
	<path fill="#666666" d="M164.024,47.107h-0.824v-2.795c0-0.228-0.015-0.438-0.04-0.635c-0.026-0.198-0.075-0.354-0.146-0.466
		c-0.073-0.123-0.179-0.213-0.316-0.272c-0.137-0.062-0.314-0.09-0.534-0.09c-0.228,0-0.461,0.056-0.708,0.167
		c-0.247,0.109-0.482,0.253-0.708,0.426v3.665h-0.826v-4.909h0.826v0.545c0.258-0.214,0.522-0.381,0.8-0.5
		c0.274-0.121,0.558-0.181,0.848-0.181c0.53,0,0.937,0.16,1.213,0.479c0.278,0.318,0.417,0.778,0.417,1.379V47.107L164.024,47.107z"
		/>
	<path fill="#666666" d="M170.034,46.549c0,0.832-0.189,1.443-0.567,1.832c-0.378,0.392-0.959,0.584-1.745,0.584
		c-0.261,0-0.515-0.019-0.762-0.055c-0.248-0.037-0.492-0.088-0.732-0.156v-0.844h0.044c0.137,0.053,0.351,0.118,0.644,0.196
		c0.293,0.077,0.586,0.116,0.879,0.116c0.281,0,0.514-0.034,0.699-0.102c0.185-0.066,0.326-0.162,0.431-0.281
		c0.103-0.113,0.176-0.252,0.22-0.412c0.044-0.161,0.066-0.342,0.066-0.541v-0.448c-0.249,0.199-0.487,0.349-0.714,0.446
		c-0.229,0.098-0.518,0.146-0.868,0.146c-0.586,0-1.051-0.211-1.396-0.635c-0.345-0.423-0.517-1.021-0.517-1.791
		c0-0.422,0.06-0.786,0.178-1.092c0.119-0.308,0.281-0.57,0.486-0.793c0.188-0.208,0.422-0.37,0.694-0.485
		c0.271-0.115,0.543-0.174,0.813-0.174c0.284,0,0.522,0.027,0.714,0.086c0.192,0.057,0.396,0.145,0.609,0.262l0.053-0.212h0.773
		L170.034,46.549L170.034,46.549z M169.208,45.758v-2.676c-0.222-0.101-0.424-0.17-0.613-0.213s-0.377-0.063-0.565-0.063
		c-0.452,0-0.812,0.151-1.07,0.457c-0.262,0.305-0.393,0.747-0.393,1.325c0,0.553,0.099,0.97,0.29,1.252
		c0.193,0.285,0.516,0.428,0.962,0.428c0.24,0,0.481-0.046,0.725-0.139C168.783,46.038,169.005,45.915,169.208,45.758z"/>
</g>
</svg>
